<svg width="39" height="42" viewBox="0 0 39 42" fill="none" xmlns="http://www.w3.org/2000/svg">
<path fill-rule="evenodd" clip-rule="evenodd" d="M24.509 38.3756L21.0118 40.3533C19.6061 40.9958 18.0767 40.9064 16.7386 40.1354L3.58161 32.5877C2.09724 31.7385 1.23135 30.2468 1.23135 28.5428V13.453C1.23135 11.749 2.09724 10.2629 3.58161 9.40813L16.7386 1.8604C18.2229 1.01121 19.9547 1.01121 21.4391 1.8604L24.4865 3.60906C24.6665 2.39114 25.7235 1.45815 26.9942 1.45815H29.8505C31.2449 1.45815 32.3863 2.58668 32.3863 3.97778V8.14552C34.6354 9.43606 36.9463 10.3467 36.9463 13.4585V28.554C36.9463 30.258 36.0804 31.7441 34.596 32.5988L24.509 38.3756ZM29.1308 37.1353L22.1756 41.1243H22.1925C20.2977 42.2919 17.8968 42.2919 15.9964 41.1243L2.96312 33.6492C1.09641 32.5765 0 30.6882 0 28.5484V13.453C0 11.3132 1.10203 9.41931 2.96312 8.35223L16.1201 0.804496C17.9868 -0.268165 20.1852 -0.268165 22.0519 0.804496L23.8849 1.85481C25.2793 -0.156431 27.4215 0.229056 29.8449 0.229056C31.9196 0.229056 33.6121 1.90509 33.6121 3.9722V7.43041L35.2089 8.34664C37.0756 9.4193 38.172 11.3076 38.172 13.4474V28.5428C38.172 30.6826 37.07 32.5765 35.2089 33.6436L29.1308 37.1353Z" fill="#00296C"/>
<path d="M27.0784 20.9616V35.6324L27.9612 35.1296V20.9616C27.9612 20.7213 27.7644 20.5258 27.5226 20.5258C27.2808 20.5202 27.0784 20.7213 27.0784 20.9616ZM31.2785 8.7768V3.97776C31.2785 3.19561 30.6375 2.55872 29.8504 2.55872H26.9941C26.2069 2.55872 25.5659 3.19561 25.5659 3.97776V5.50295L20.8879 2.82129C19.7465 2.16764 18.4364 2.16764 17.2951 2.82129L4.13811 10.369C2.99672 11.0227 2.33887 12.1512 2.33887 13.4585V28.554C2.33887 29.8669 2.99109 30.9898 4.13811 31.6435L8.93421 34.3978V30.2412V28.0624V24.0119V22.4812V20.9504C8.93421 20.671 9.16473 20.442 9.44587 20.442H9.51334V19.2352V18.5816C8.97357 17.9224 8.29885 17.6654 7.3655 18.2296C7.3655 18.4252 7.20806 18.5816 7.01127 18.5816H5.94859C5.7518 18.5816 5.59437 18.4252 5.59437 18.2296V15.2184C5.59437 15.0228 5.7518 14.8664 5.94859 14.8664H7.01127C7.20806 14.8664 7.3655 15.0228 7.3655 15.2184C8.05708 15.7435 8.74866 15.7826 9.43462 14.8664H9.50772H9.51334H9.53021H9.54707H9.56394H9.58081H9.59768H9.61455H9.63141H9.64828H9.66515H9.68202H9.69889H9.71575H9.73262H9.74949H9.76636H9.78322H9.80009H9.81696H9.83383H9.8507H9.86756H9.88443H9.9013H9.91817H9.93504H9.9519H9.96877H9.98564H10.0025H10.0194H10.0362H10.0531H10.07H10.0925H10.1093H10.1262H10.1431H10.1599H10.1768H10.1937H10.2105H10.2274H10.2443H10.2611H10.278H10.2949H10.3118H10.3286H10.3455H10.3624H10.3792H10.3961H10.413H10.4298H10.4467H10.4636H10.4804H10.4973H10.5142H11.3801H11.4869V14.872C13.691 14.9949 15.6083 16.129 16.3729 17.7771C16.3167 17.7101 16.2661 17.8944 16.1986 17.8386C15.552 17.2408 14.5287 16.7044 13.5391 16.8665C12.5833 17.0229 11.8074 17.5648 11.4813 18.2799V18.5816V19.2352V20.442H11.5319C11.813 20.442 12.0435 20.671 12.0491 20.956V24.0119V28.0624V36.1855L17.2894 39.1912C17.4131 39.2638 17.5368 39.3253 17.6661 39.3812V30.8613L16.8171 30.1071L15.3271 29.973C14.7761 29.9228 14.3263 29.5261 14.3263 28.9786V27.9841H23.6824V28.9786C23.6824 29.5261 23.2269 29.9283 22.6815 29.973L21.1915 30.1071L20.3425 30.8613V39.4482C20.5281 39.3756 20.708 39.2918 20.8823 39.1912L25.9595 36.2749V20.2576C25.0487 19.7269 24.4358 18.7827 24.4358 17.6151C24.4358 16.4474 25.1442 15.358 26.1676 14.8608V17.8497L27.517 18.8274L28.8664 17.8497V14.8608C29.8897 15.358 30.5982 16.4474 30.5982 17.6151C30.5982 18.7827 29.9853 19.7269 29.0745 20.2576V34.4816L34.0336 31.6379C35.175 30.9842 35.8329 29.8557 35.8329 28.5484V13.4529C35.8329 12.14 35.1806 11.0171 34.0336 10.3634L31.2785 8.7768ZM22.7659 21.5705H23.688V27.5484H14.3263V21.5705H15.6083L15.9119 24.2242L16.2998 21.5705H18.92L19.2292 25.336L19.5891 21.5705H20.8429L21.2365 23.1181L21.3715 21.5705H22.1811L22.3498 25.336L22.7659 21.5705Z" fill="#2196F3"/>
</svg>
