<svg width="132" height="48" viewBox="0 0 132 48" fill="none" xmlns="http://www.w3.org/2000/svg">
<g clip-path="url(#clip0_3908_92937)">
<path d="M30.6163 22.4788C33.3065 22.4788 35.4951 20.3468 35.4951 17.7262V6.05948C35.4951 3.43902 33.3065 1.30713 30.6163 1.30713C27.926 1.30713 25.7373 3.43902 25.7373 6.05948V17.7264C25.7374 20.3468 27.9261 22.4788 30.6163 22.4788Z" fill="#2196F3"/>
<path d="M39.8167 22.4785H43.3165C46.0067 22.4785 48.1953 20.3465 48.1953 17.726C48.1953 15.1055 46.0067 12.9736 43.3165 12.9736C40.6262 12.9736 38.4375 15.1055 38.4375 17.726V21.1351C38.4375 21.877 39.055 22.4785 39.8167 22.4785Z" fill="#2196F3"/>
<path d="M5.99602 23.1835H17.9733C20.6635 23.1835 22.8521 21.0515 22.8521 18.431C22.8521 15.8106 20.6635 13.6787 17.9733 13.6787H5.99602C3.30582 13.6788 1.11719 15.8107 1.11719 18.431C1.11719 21.0515 3.30582 23.1835 5.99602 23.1835Z" fill="#2196F3"/>
<path d="M17.9736 10.8118H21.4732C22.2349 10.8118 22.8524 10.2103 22.8524 9.46835V6.05948C22.8524 3.43902 20.6638 1.30713 17.9736 1.30713C15.2834 1.30713 13.0947 3.43902 13.0947 6.05948C13.0947 8.67993 15.2834 10.8118 17.9736 10.8118Z" fill="#2196F3"/>
<path d="M18.6962 25.9922C16.006 25.9922 13.8174 28.1242 13.8174 30.7447V42.4113C13.8174 45.0319 16.006 47.1639 18.6962 47.1639C21.3866 47.1639 23.5753 45.0319 23.5753 42.4113V30.7447C23.5753 28.1242 21.3865 25.9922 18.6962 25.9922Z" fill="#2196F3"/>
<path d="M9.49573 25.9922H5.99602C3.30582 25.9922 1.11719 28.1242 1.11719 30.7447C1.11719 33.3652 3.30582 35.4971 5.99602 35.4971C8.68629 35.4971 10.875 33.3652 10.875 30.7447V27.3357C10.875 26.5937 10.2574 25.9922 9.49573 25.9922Z" fill="#2196F3"/>
<path d="M43.315 25.2891H31.3379C28.6476 25.2891 26.459 27.421 26.459 30.0416C26.459 32.662 28.6476 34.7939 31.3379 34.7939H43.3151C46.0053 34.7939 48.1939 32.662 48.1939 30.0416C48.1938 27.421 46.0052 25.2891 43.315 25.2891Z" fill="#2196F3"/>
<path d="M31.3379 37.6587H27.8382C27.0765 37.6587 26.459 38.2602 26.459 39.0022V42.4111C26.459 45.0317 28.6476 47.1637 31.3379 47.1637C34.0281 47.1637 36.2168 45.0317 36.2168 42.4111C36.2167 39.7907 34.0281 37.6587 31.3379 37.6587Z" fill="#2196F3"/>
<path d="M68.4526 31.3112C68.3543 31.4685 68.2511 31.5815 68.143 31.6503C68.0349 31.7093 67.8973 31.7387 67.7302 31.7387C67.5533 31.7387 67.3617 31.6896 67.1553 31.5913C66.9588 31.493 66.7278 31.3849 66.4625 31.267C66.1971 31.1392 65.8925 31.0263 65.5485 30.928C65.2144 30.8297 64.8164 30.7806 64.3545 30.7806C63.6371 30.7806 63.072 30.9329 62.6593 31.2375C62.2564 31.5422 62.0549 31.9402 62.0549 32.4316C62.0549 32.7559 62.158 33.0311 62.3644 33.2571C62.5807 33.4733 62.8607 33.6649 63.2047 33.832C63.5585 33.999 63.9565 34.1514 64.3987 34.289C64.841 34.4167 65.2882 34.5592 65.7402 34.7165C66.2021 34.8737 66.6541 35.0555 67.0964 35.2619C67.5386 35.4584 67.9317 35.714 68.2757 36.0284C68.6294 36.3331 68.9095 36.7016 69.1159 37.134C69.3321 37.5664 69.4402 38.0873 69.4402 38.6966C69.4402 39.4238 69.3075 40.097 69.0422 40.7161C68.7867 41.3254 68.4034 41.8561 67.8924 42.3082C67.3814 42.7504 66.7475 43.0993 65.9908 43.3548C65.2439 43.6005 64.3791 43.7233 63.3963 43.7233C62.8755 43.7233 62.3644 43.6742 61.8632 43.5759C61.3719 43.4875 60.8953 43.3597 60.4333 43.1927C59.9813 43.0256 59.5587 42.829 59.1656 42.603C58.7823 42.377 58.4433 42.1313 58.1484 41.866L58.9887 40.4803C59.0968 40.3132 59.2245 40.1855 59.372 40.097C59.5194 40.0086 59.7061 39.9643 59.9321 39.9643C60.1582 39.9643 60.3695 40.0282 60.566 40.156C60.7724 40.2838 61.0082 40.4213 61.2736 40.5687C61.5389 40.7161 61.8485 40.8537 62.2023 40.9815C62.5659 41.1093 63.0229 41.1731 63.5732 41.1731C64.0057 41.1731 64.3742 41.124 64.6788 41.0257C64.9933 40.9176 65.2488 40.78 65.4453 40.613C65.6517 40.4459 65.7991 40.2543 65.8876 40.038C65.9859 39.812 66.035 39.5811 66.035 39.3452C66.035 38.9914 65.9269 38.7015 65.7107 38.4755C65.5043 38.2495 65.2242 38.0529 64.8704 37.8858C64.5265 37.7188 64.1285 37.5714 63.6764 37.4436C63.2342 37.306 62.7772 37.1586 62.3055 37.0013C61.8436 36.8441 61.3866 36.6623 60.9345 36.4559C60.4923 36.2397 60.0943 35.9695 59.7405 35.6452C59.3966 35.3209 59.1165 34.9228 58.9002 34.4511C58.6939 33.9794 58.5907 33.4094 58.5907 32.7411C58.5907 32.122 58.7136 31.5324 58.9592 30.9722C59.2049 30.412 59.5636 29.9256 60.0353 29.5128C60.5169 29.0902 61.1114 28.7561 61.819 28.5104C62.5364 28.2549 63.3619 28.1271 64.2955 28.1271C65.3373 28.1271 66.2856 28.2991 67.1406 28.6431C67.9956 28.987 68.7081 29.4391 69.2781 29.9993L68.4526 31.3112ZM75.866 21.582V43.4875H72.2249V21.582H75.866ZM87.4837 37.0308C86.4316 37.0799 85.5472 37.1734 84.8303 37.3109C84.1126 37.4387 83.5377 37.6057 83.1056 37.8121C82.6726 38.0185 82.3631 38.2592 82.1769 38.5344C81.9899 38.8096 81.8968 39.1093 81.8968 39.4337C81.8968 40.0724 82.083 40.5294 82.4569 40.8046C82.8402 41.0798 83.336 41.2173 83.9458 41.2173C84.6922 41.2173 85.3361 41.0847 85.8769 40.8193C86.427 40.5441 86.9623 40.1314 87.4837 39.5811V37.0308ZM79.1402 30.471C80.8796 28.8789 82.9729 28.0829 85.4199 28.0829C86.3044 28.0829 87.095 28.2303 87.7933 28.5251C88.4908 28.8101 89.0804 29.2131 89.5622 29.7339C90.0432 30.245 90.4071 30.8591 90.6531 31.5766C90.9083 32.294 91.0363 33.0802 91.0363 33.9352V43.4875H89.3853C89.0408 43.4875 88.7755 43.4384 88.5893 43.3401C88.4023 43.232 88.2549 43.0207 88.1471 42.7062L87.8228 41.6154C87.4395 41.9593 87.0655 42.264 86.7024 42.5293C86.3385 42.7848 85.9599 43.001 85.5673 43.1779C85.174 43.3548 84.7511 43.4875 84.2996 43.5759C83.8574 43.6742 83.3655 43.7233 82.8255 43.7233C82.1862 43.7233 81.5965 43.6398 81.0565 43.4727C80.5158 43.2959 80.0487 43.0354 79.6561 42.6915C79.2628 42.3475 78.9578 41.92 78.7422 41.409C78.5257 40.8979 78.4178 40.3034 78.4178 39.6253C78.4178 39.242 78.4815 38.8636 78.6095 38.4902C78.7367 38.1069 78.9431 37.7433 79.2286 37.3994C79.5234 37.0554 79.9013 36.7311 80.3637 36.4264C80.8253 36.1218 81.3901 35.8564 82.0589 35.6304C82.737 35.4044 83.523 35.2226 84.4175 35.085C85.3113 34.9376 86.3339 34.8491 87.4837 34.8197V33.9352C87.4837 32.9229 87.2672 32.1761 86.8351 31.6945C86.4022 31.2032 85.7784 30.9574 84.963 30.9574C84.3733 30.9574 83.8814 31.0263 83.4888 31.1638C83.1056 31.3014 82.7665 31.4587 82.4717 31.6355C82.1769 31.8026 81.9061 31.955 81.6609 32.0925C81.4251 32.2301 81.1597 32.2989 80.8649 32.2989C80.6089 32.2989 80.3932 32.235 80.2163 32.1073C80.0394 31.9697 79.8966 31.8124 79.7888 31.6355L79.1402 30.471ZM105.3 31.5618C105.192 31.6994 105.084 31.8076 104.976 31.8861C104.878 31.9647 104.73 32.0041 104.534 32.0041C104.347 32.0041 104.165 31.95 103.988 31.8419C103.812 31.724 103.6 31.5962 103.355 31.4587C103.109 31.3112 102.814 31.1835 102.47 31.0754C102.136 30.9574 101.718 30.8985 101.217 30.8985C100.578 30.8985 100.018 31.0164 99.5366 31.2523C99.0548 31.4783 98.6521 31.8076 98.3278 32.2399C98.0128 32.6723 97.777 33.1981 97.6202 33.8172C97.4627 34.4265 97.3844 35.1194 97.3844 35.8958C97.3844 36.7016 97.4674 37.419 97.635 38.048C97.8119 38.677 98.0625 39.2076 98.3868 39.64C98.7111 40.0626 99.1037 40.3869 99.5661 40.613C100.028 40.8292 100.548 40.9373 101.129 40.9373C101.708 40.9373 102.175 40.8684 102.529 40.7309C102.892 40.5835 103.197 40.4262 103.443 40.2592C103.688 40.0823 103.9 39.925 104.077 39.7874C104.263 39.64 104.469 39.5663 104.696 39.5663C104.991 39.5663 105.212 39.6794 105.359 39.9054L106.406 41.2321C106.003 41.7038 105.566 42.1018 105.094 42.4261C104.622 42.7406 104.13 42.9961 103.62 43.1927C103.119 43.3794 102.597 43.5121 102.057 43.5907C101.527 43.6693 100.996 43.7086 100.465 43.7086C99.5312 43.7086 98.6521 43.5366 97.8266 43.1927C97.0011 42.8389 96.2788 42.3278 95.6596 41.6596C95.0405 40.9913 94.5486 40.1756 94.1855 39.2125C93.8317 38.2396 93.6548 37.134 93.6548 35.8958C93.6548 34.7853 93.8116 33.7583 94.1266 32.8148C94.4509 31.8616 94.9226 31.041 95.5417 30.3531C96.1609 29.6553 96.9274 29.1099 97.8414 28.7168C98.7553 28.3237 99.8066 28.1271 100.996 28.1271C102.126 28.1271 103.113 28.3089 103.959 28.6726C104.814 29.0362 105.58 29.557 106.259 30.2351L105.3 31.5618ZM112.33 21.582V34.1268H113.008C113.253 34.1268 113.445 34.0973 113.583 34.0384C113.73 33.9695 113.877 33.8369 114.025 33.6404L117.784 28.9969C117.941 28.7905 118.113 28.6332 118.3 28.5251C118.496 28.4171 118.747 28.363 119.052 28.363H122.383L117.681 33.9794C117.346 34.4216 116.982 34.7607 116.59 34.9965C116.796 35.144 116.978 35.316 117.135 35.5125C117.302 35.709 117.46 35.9204 117.607 36.1464L122.649 43.4875H119.361C119.076 43.4875 118.831 43.4433 118.624 43.3548C118.418 43.2565 118.246 43.0846 118.108 42.8389L114.246 37.1045C114.108 36.8785 113.966 36.7311 113.819 36.6623C113.671 36.5935 113.45 36.5591 113.155 36.5591H112.33V43.4875H108.689V21.582H112.33Z" fill="#2196F3"/>
</g>
<defs>
<clipPath id="clip0_3908_92937">
<rect width="130.343" height="46.5512" fill="white" transform="translate(0.828125 0.724609)"/>
</clipPath>
</defs>
</svg>
